<svg xmlns="http://www.w3.org/2000/svg" viewBox="0 0 140 72">
  <g fill="none" fill-rule="evenodd">
    <path fill="#FCB716"
      d="M40.84 50.373c-5.708 0-10.351 4.642-10.351 10.35s4.643 10.35 10.35 10.35c5.708 0 10.35-4.643 10.35-10.35 0-5.708-4.642-10.35-10.35-10.35" />
    <path fill="#EE363F"
      d="M11.916 50.373c-5.708 0-10.35 4.642-10.35 10.35s4.642 10.35 10.35 10.35c5.706 0 10.35-4.643 10.35-10.35 0-5.708-4.644-10.35-10.35-10.35" />
    <path fill="#07AF56"
      d="M69.764 50.373c-5.708 0-10.351 4.642-10.351 10.35s4.643 10.35 10.35 10.35c5.708 0 10.35-4.643 10.35-10.35 0-5.708-4.642-10.35-10.35-10.35" />
    <path fill="#04A9DF"
      d="M127.61 50.373c-5.707 0-10.35 4.642-10.35 10.35s4.643 10.35 10.35 10.35 10.35-4.643 10.35-10.35c0-5.708-4.643-10.35-10.35-10.35" />
    <path fill="#A1479A"
      d="M98.687 50.373c-5.707 0-10.351 4.643-10.351 10.35s4.643 10.35 10.35 10.35c5.708 0 10.35-4.643 10.35-10.35s-4.641-10.35-10.349-10.35" />
    <path fill="#5A5B5B"
      d="M0 21.045C0 14.334 5.387 9.267 12.052 9.267c6.71 0 12.051 5.022 12.051 11.732v10.317c0 1.05-.73 1.78-1.825 1.78-1.142 0-1.826-.73-1.826-1.78v-3.013h-.183c-1.415 2.42-4.246 4.52-8.446 4.52C5.341 32.822 0 27.8 0 21.044m20.543 0c0-4.839-3.652-8.49-8.49-8.49-4.84 0-8.492 3.651-8.492 8.49 0 4.838 3.652 8.491 8.491 8.491s8.491-3.653 8.491-8.49m12.966 19.4c-.958-.456-1.416-1.278-1.05-2.236.366-1.005 1.279-1.415 2.237-.959a14 14 0 0 0 5.888 1.324c5.434 0 8.72-3.241 8.72-8.765v-1.507h-.183c-1.415 2.42-4.244 4.52-8.445 4.52-6.483 0-11.824-5.022-11.824-11.778 0-6.71 5.387-11.778 12.053-11.778 6.71 0 12.052 5.022 12.052 11.732v8.583c0 7.395-4.749 12.37-12.51 12.37-2.373 0-4.747-.456-6.938-1.505m15.886-19.402c0-4.839-3.652-8.492-8.49-8.492-4.84 0-8.491 3.653-8.491 8.492s3.652 8.49 8.49 8.49c4.839 0 8.491-3.651 8.491-8.49m8.31 0c0-6.711 5.342-11.778 12.052-11.778S81.81 14.334 81.81 21.045c0 6.71-5.342 11.777-12.052 11.777s-12.052-5.067-12.052-11.777m20.543 0c0-4.839-3.652-8.49-8.49-8.49-4.84 0-8.492 3.651-8.492 8.49 0 4.838 3.652 8.491 8.491 8.491s8.491-3.653 8.491-8.49m8.31 0c0-6.712 5.294-11.779 11.823-11.779 4.2 0 7.03 2.1 8.445 4.52h.183V1.78c0-1.05.73-1.78 1.826-1.78 1.142 0 1.826.73 1.826 1.78v19.31c0 6.711-5.342 11.732-12.052 11.732-6.664 0-12.052-5.067-12.052-11.777m20.543 0c0-4.839-3.652-8.49-8.49-8.49-4.84 0-8.492 3.651-8.492 8.49 0 4.838 3.652 8.491 8.491 8.491s8.491-3.653 8.491-8.49m8.31 0c0-6.712 5.387-11.779 12.052-11.779 6.71 0 12.052 5.022 12.052 11.732v10.317c0 1.05-.731 1.78-1.826 1.78-1.142 0-1.827-.73-1.827-1.78v-3.013h-.183c-1.415 2.42-4.245 4.52-8.445 4.52-6.482 0-11.823-5.022-11.823-11.778m20.542 0c0-4.839-3.651-8.49-8.49-8.49s-8.491 3.651-8.491 8.49c0 4.838 3.652 8.491 8.49 8.491 4.84 0 8.491-3.653 8.491-8.49" />
  </g>
</svg>