<svg xmlns="http://www.w3.org/2000/svg" viewBox="0 0 666.667 666.667">
  <path
    d="M666.665 333.335C666.665 149.241 517.427.003 333.333.003S0 149.24 0 333.335C0 489.661 107.62 620.83 252.807 656.852V435.196h-68.735V333.335h68.735v-43.892c0-113.456 51.344-166.042 162.73-166.042 21.118 0 57.556 4.14 72.463 8.281v92.339c-7.868-.828-21.532-1.243-38.51-1.243-54.656 0-75.775 20.704-75.775 74.533v36.024h108.878L463.89 435.196h-90.175v229.03c165.048-19.934 292.95-160.467 292.95-330.891"
    fill="#0866ff" />
  <path
    d="m463.89 435.196 18.705-101.861H373.717V297.31c0-53.83 21.117-74.532 75.774-74.532 16.978 0 30.642.413 38.51 1.241v-92.337c-14.907-4.141-51.346-8.283-72.463-8.283-111.385 0-162.73 52.588-162.73 166.044v43.892h-68.736v101.861h68.736v221.655a334 334 0 0 0 80.525 9.816c13.672 0 27.144-.842 40.384-2.44V435.195Z"
    fill="#fff" />
</svg>