<svg xmlns="http://www.w3.org/2000/svg" viewBox="0 0 78 34" fill="none">
  <path
    d="M47.854 23.595c.793-.138 1.573.54 1.742 1.494.169.966-.325 1.857-1.118 1.995h-.026c-.832.15-1.664.226-2.51.239-1.754 0-3.171-.402-4.276-1.23-1.417-1.042-2.158-2.699-2.158-4.757V2.21c0-.778.819-1.406 1.833-1.406s1.833.628 1.833 1.406v19.126c0 .941.247 1.594.728 1.958.429.326 1.495.728 3.913.314zm-37.05 2.058c-.663 0-1.287-.941-1.612-1.556a446 446 0 0 1-4.043-7.794c-2.12-4.179-3.263-6.174-4.225-6.89-.95-.715-1.144-1.631-.69-2.447.482-.828 1.574-1.13 2.432-.665.013 0 .013.012.026.012 2.04 1.117 3.107 3.213 5.759 8.434 1.027 2.02 2.3 4.543 3.978 7.68.416.779.702 2.348-.013 2.862z"
    fill="#D60F0F" />
  <path
    d="M53.717 18.073c0-4.644-3.9-8.409-8.71-8.409h-7.709c-.806 0-1.456-.79-1.456-1.77 0-.978.65-1.769 1.456-1.769h7.709c6.838 0 12.376 5.347 12.376 11.948v7.869c0 .778-.819 1.405-1.833 1.405s-1.833-.627-1.833-1.405zm-21.97 2.222v.188c0 2.02-1.69 3.326-4.355 3.326s-4.368-1.306-4.368-3.314c0-2.02 1.716-3.325 4.368-3.325h.156c2.769 0 7.54 1.23 7.865 1.33v-3.363c-1.768-.603-4.589-1.507-7.865-1.507h-.156c-4.914 0-8.034 3.075-8.034 6.865s3.12 6.853 8.034 6.853 8.034-3.062 8.034-6.853v-.175l-.013-7.342c0-3.79-3.783-6.852-8.021-6.852l-.702-.013c-5.59 0-9.958 1.456-13.156 8.584-.26.578-.507 1.155-.754 1.732l-.026.076c-.767 1.82-1.209 3.162-2.314 5.622-2.067 4.606-3.913 7.292-6.734 7.442-1.521.088-1.898 1.067-1.716 2.046s.832 1.581 1.716 1.581c4.589 0 7.462-4.079 10.205-9.89l.039-.075c.416-.94.819-1.92 1.235-2.949a110 110 0 0 1 1.742-4.18c2.444-5.446 5.213-6.45 9.776-6.45h.702c1.963 0 4.355 1.305 4.355 3.313v7.292"
    fill="#D60F0F" />
  <path
    d="M74.334 20.294v.189c0 2.02-1.716 3.325-4.368 3.325s-4.368-1.305-4.368-3.313c0-2.02 1.716-3.326 4.368-3.326h.156c2.769 0 7.54 1.23 7.865 1.33v-3.363c-1.768-.602-4.602-1.506-7.865-1.506h-.156c-4.914 0-8.034 3.075-8.034 6.865s3.12 6.852 8.034 6.852S78 24.285 78 20.495v-.176l-.013-7.341c0-3.79-3.783-6.84-8.021-6.84 0 0-1.313-.013-1.586-.013-9.022 0-14.651 5.685-14.651 13.542h3.666c0-5.899 3.991-10.003 10.985-10.003.325 0 1.339.013 1.339.013 2.626 0 4.628 1.293 4.628 3.3z"
    fill="#D60F0F" />
</svg>