<svg xmlns="http://www.w3.org/2000/svg" viewBox="0 0 800 800" xml:space="preserve"><path d="M0 756.9V43.1C0 19.3 19.3 0 43.1 0h713.7C780.7 0 800 19.3 800 43.1v713.7c0 23.8-19.3 43.1-43.1 43.1H43.1C19.3 800 0 780.7 0 756.9" style="fill:#cc202e"/><path fill="#fff" class="st1" d="m168.5 350.7-.6 19.3-50.2 54.6c21 0 34.3-.2 42-.6-2.2 10.4-4 18.8-5.9 31.5-10.1-.8-25.8-1.1-41.6-1.1-17.6 0-32.9.2-45.2 1.1l.4-19.5 50.3-54.4c-22 0-30.1.2-39.2.4 2-9.7 3.4-20.5 4.9-31.3 15.9.6 22.2.9 43 .9 19.1-.1 30-.3 42.1-.9m35.7 60.4c0 12.9 4.2 19.5 11.5 19.5 9.7 0 17.3-15.7 17.3-34.7 0-13.1-4.2-19.5-11.3-19.5-9.6 0-17.5 15.4-17.5 34.7m66-16.8c0 35.1-24.8 64.4-57.7 64.4-29.5 0-44.6-20.1-44.6-46.4 0-34.9 25-64.1 57.7-64.1 29.9 0 44.6 20.1 44.6 46.1m395.5 16.8c0 12.9 4.2 19.5 11.5 19.5 9.7 0 17.4-15.7 17.4-34.7 0-13.1-4.2-19.5-11.3-19.5-9.8 0-17.6 15.4-17.6 34.7m67.3-17.5c0 35.6-25.2 65.2-58.5 65.2-29.9 0-45.2-20.4-45.2-47 0-35.4 25.4-65 58.5-65 30.3 0 45.2 20.4 45.2 46.8m-293.1-11.4c2.6-18 1.2-34.3-18.8-34.3-14.5 0-30.3 12.3-41.4 32.8 2.4-16.9 1-32.8-18.8-32.8-14.9 0-31.1 12.9-42.2 34.3 2.8-14 2.2-29.8 1.4-33.2-11.5 1.9-21.6 3-35.7 3.4.4 9.7-.2 22.4-2 34.5l-4.6 31.8c-1.8 12.5-3.8 26.9-5.9 36h37.5c.2-5.5 1.6-14.2 2.6-21.8l3.2-21.8c2.6-14.2 13.9-30.9 22.6-30.9 5 0 4.8 4.9 3.4 14l-3.6 24.6c-1.8 12.5-3.8 26.9-5.9 36h37.9c.2-5.5 1.4-14.2 2.4-21.8l3.2-21.8c2.6-14.2 13.9-30.9 22.6-30.9 5.1 0 4.8 4.6 4 11l-9.1 63.5h34.6zm181.3 42.6-4 25c-6.3 3.4-18 8.3-31.5 8.3-23 0-27.6-12.3-24-38.3l5.9-41.9h-11.3l3.2-27.1 12.3-.6 4.6-19.7 34.9-13.1-4.4 32.8h24c-.8 3.4-3.6 22-4.4 27.7H603l-5.2 38.8c-1.4 9.9-.6 13.5 6.3 13.5 5-.1 12.5-3.1 17.1-5.4m-132.4 11.9c12.7-1.6 21.4-13.8 23.5-26l.4-3.3c-5.5-1.2-13.3-2.2-21-1.2-7.3.9-13.4 3.9-16.6 8.3-2.5 3.1-3.7 6.9-3.2 11.4.9 6.7 8.3 11.8 16.9 10.8M478 456c-17.9 2.2-29.7-4.9-33.3-21.1-2.2-10.2.9-21.8 6.3-28.7 7.2-9 19-14.9 33.4-16.6 11.6-1.4 21.3-.7 30.4 1l.4-1.6c.3-2.5.5-5 .2-8-.9-7.7-7-12.2-21.9-10.4-10.1 1.2-19.7 4.9-27.1 9l-7.2-21.9c10.1-5.8 22.8-10.2 37.4-12 27.8-3.4 47.4 5.5 49.9 25.8.7 5.4.7 11.2.1 16.4-3.6 25.2-5.9 44.2-6.9 56.9-.2 2-.1 5.3 0 10.2h-34.5c.7-2 1.4-4.7 2-8.1q.6-3.3.9-8.4c-7.6 10-17.6 16-30.1 17.5"/></svg>